<svg width="100" height="100" viewBox="0 0 100 100" fill="none" xmlns="http://www.w3.org/2000/svg">
<path d="M12.0213 50.5374V37.6979C12.0213 37.6979 12.0213 34.8732 13.0626 33.0757C14.104 31.2781 16.4471 29.9942 16.4471 29.9942C16.4471 29.9942 46.9072 6.11276 49.5106 5.34239C52.1141 4.57202 54.9778 5.34239 54.9778 5.34239C54.9778 5.34239 59.4037 5.94156 60.1847 8.68065C60.9657 11.4197 60.9657 15.3572 60.9657 15.3572C60.9657 15.3572 60.9657 17.4115 60.1847 18.6954C59.4037 19.9794 57.5813 21.5201 57.5813 21.5201L16.4471 52.3349C16.4471 52.3349 14.3643 54.1324 13.0626 53.6188C11.7609 53.1053 12.0213 50.5374 12.0213 50.5374Z" fill="#FF9503"/>
<path fill-rule="evenodd" clip-rule="evenodd" d="M13.5833 62.6065C12.3233 66.832 13.5026 82.6063 13.5794 83.6128C13.582 83.6472 13.5843 83.6792 13.5879 83.7135C13.6366 84.1771 14.1389 87.772 18.2695 91.3669C20.833 93.598 23.0472 94.2783 24.4566 94.4558C25.5284 94.5908 26.6173 94.5028 27.6935 94.5966C32.6527 95.0288 47.622 96.153 52.3744 94.4484C56.9384 92.8114 83.5588 69.9659 84.0709 69.5263C84.0869 69.5125 84.0863 69.5129 84.1022 69.4991V69.4991C85.9433 67.8934 87 65.5698 87 63.1269V62.6065V24.6016C87 24.6016 87 24.6016 87 24.6016C87 24.6016 87 21.7769 81.2725 18.6954C76.4559 16.1041 72.0076 17.8711 70.7144 18.4988C70.4591 18.6227 70.258 18.7525 70.0271 18.9175C65.5767 22.0975 14.8279 58.4326 13.5833 62.6065ZM30.2206 62.9004C30.5909 63.972 31.5201 64.7068 32.4867 65.2994L40.659 70.3102V70.3102C41.4777 70.7947 42.4777 70.862 43.3539 70.4916L43.4288 70.4599C43.6641 70.3605 43.8865 70.2328 44.0911 70.0798L66.9274 53.0007C67.2916 52.7284 67.643 52.4363 67.9198 52.0755C68.4017 51.4474 69.0356 50.365 68.5157 49.5102C68.0356 48.7211 66.6704 48.902 65.6895 49.1586C64.9591 49.3497 64.2994 49.7302 63.6839 50.1674C57.5688 54.5118 51.4634 58.9864 45.5596 63.4018C44.8981 63.8966 44.3176 64.4917 43.7 65.0402C43.192 65.4915 42.538 65.9448 41.9607 65.9448C41.1255 65.9448 39.855 64.9961 39.2225 64.4771C38.9605 64.2622 38.7001 64.0463 38.4277 63.8448L36.7538 62.6065V62.6065C35.9497 62.0777 35.8376 60.9423 36.5228 60.2665L36.6675 60.1237C36.725 60.0671 36.7865 60.0146 36.8515 59.9667L65.0404 39.2355C65.9619 38.5579 66.9532 37.7142 66.8926 36.572C66.8722 36.1865 66.7477 35.7749 66.4329 35.3868C65.7899 34.5941 64.5515 34.7802 63.698 35.0387C63.0771 35.2268 62.5286 35.5852 62.0131 35.9792L32.322 58.6758C31.8065 59.0698 31.2273 59.3908 30.7654 59.8465C30.3751 60.2317 29.9849 60.8093 29.9849 61.5793C29.9849 62.0541 30.0838 62.5044 30.2206 62.9004Z" fill="url(#paint0_linear_13_19)"/>
<defs>
<linearGradient id="paint0_linear_13_19" x1="45.5476" y1="38.3827" x2="69.2525" y2="82.0553" gradientUnits="userSpaceOnUse">
<stop stop-color="#FE7200"/>
<stop offset="1" stop-color="#F05500"/>
</linearGradient>
</defs>
</svg>
