<svg width="100" height="100" viewBox="0 0 100 100" fill="none" xmlns="http://www.w3.org/2000/svg">
<rect width="100" height="100" rx="10" fill="white"/>
<path d="M20.017 49.934V39.5203C20.017 39.5203 20.017 37.2293 20.8501 35.7713C21.6832 34.3134 23.5577 33.272 23.5577 33.272C23.5577 33.272 47.9258 13.9025 50.0085 13.2777C52.0912 12.6529 54.3823 13.2777 54.3823 13.2777C54.3823 13.2777 57.9229 13.7637 58.5478 15.9853C59.1726 18.2069 59.1726 21.4004 59.1726 21.4004C59.1726 21.4004 59.1726 23.0666 58.5478 24.108C57.9229 25.1493 56.465 26.399 56.465 26.399L23.5577 51.3919C23.5577 51.3919 21.8915 52.8498 20.8501 52.4333C19.8087 52.0167 20.017 49.934 20.017 49.934Z" fill="#FF9503"/>
<path fill-rule="evenodd" clip-rule="evenodd" d="M21.2667 59.7229C20.2612 63.1413 21.1972 75.8786 21.2631 76.7539C21.2656 76.7879 21.2676 76.8165 21.2712 76.8503C21.3149 77.2583 21.7338 80.1539 25.0156 83.0496C26.8682 84.6843 28.4928 85.2926 29.6207 85.501C30.6973 85.7 31.8147 85.6057 32.9055 85.6997C37.1845 86.0688 48.6037 86.8928 52.2995 85.5489C55.9504 84.2213 77.2425 65.6959 77.6566 65.3354C77.6695 65.3242 77.6691 65.3244 77.682 65.3131V65.3131C79.156 64.0098 80 62.1369 80 60.1694V59.7229V28.8983C80 28.8983 80 28.8983 80 28.8983C80 28.8983 80 26.6073 75.418 24.108C71.6548 22.0553 68.1727 23.3743 67.0482 23.9113C66.7907 24.0342 66.5832 24.171 66.3521 24.3385C62.3655 27.2274 22.2563 56.3583 21.2667 59.7229ZM34.4833 59.6439C34.7548 60.7466 35.7139 61.4872 36.6784 62.0867L42.9272 65.9711V65.9711C43.5812 66.3635 44.3838 66.418 45.0848 66.1175L45.1446 66.0919C45.3318 66.0117 45.5085 65.9089 45.6708 65.7858L63.8342 52.0136C64.1973 51.7383 64.5505 51.4446 64.8152 51.0736C65.1856 50.5546 65.6005 49.7474 65.2125 49.1009C64.8645 48.5208 63.9347 48.587 63.1793 48.7595C62.438 48.9287 61.7764 49.3245 61.1595 49.7692C56.3974 53.2019 51.6445 56.7329 47.0425 60.2203C46.3839 60.7194 45.8151 61.3302 45.1766 61.8548C44.8033 62.1616 44.3635 62.4304 43.9686 62.4304C43.3331 62.4304 42.3828 61.7346 41.8559 61.3043C41.5928 61.0895 41.3331 60.8704 41.0614 60.6666L39.8031 59.7229V59.7229C39.1566 59.2919 39.066 58.3772 39.6154 57.8278L39.733 57.7102C39.7797 57.6636 39.8296 57.6203 39.8825 57.5809L62.1615 40.9694C63.078 40.2861 64.1436 39.3928 63.8662 38.2838C63.8129 38.0706 63.7129 37.854 63.5464 37.6458C63.0785 37.061 62.2166 37.133 61.5507 37.3086C60.9195 37.475 60.3707 37.8472 59.8548 38.247L36.4133 56.4141C35.8974 56.814 35.303 57.1329 34.8786 57.6288C34.6168 57.9347 34.388 58.355 34.388 58.8898C34.3879 59.153 34.4249 59.407 34.4833 59.6439Z" fill="url(#paint0_linear_12_11)"/>
<defs>
<linearGradient id="paint0_linear_12_11" x1="46.8381" y1="40.0757" x2="66.2076" y2="75.274" gradientUnits="userSpaceOnUse">
<stop stop-color="#FE7200"/>
<stop offset="1" stop-color="#F05500"/>
</linearGradient>
</defs>
</svg>
